<svg xmlns="http://www.w3.org/2000/svg" xmlns:xlink="http://www.w3.org/1999/xlink" width="500" zoomAndPan="magnify" viewBox="0 0 375 374.999991" height="500" preserveAspectRatio="xMidYMid meet" version="1.0"><defs><clipPath id="4dca2021c8"><path d="M 23.988281 223.515625 L 187.84375 223.515625 L 187.84375 329.101562 L 23.988281 329.101562 Z M 23.988281 223.515625 " clip-rule="nonzero"/></clipPath><clipPath id="1eb98c1c64"><path d="M 187.414062 223.515625 L 350.988281 223.515625 L 350.988281 329.101562 L 187.414062 329.101562 Z M 187.414062 223.515625 " clip-rule="nonzero"/></clipPath><clipPath id="202523b3e5"><path d="M 126 45.652344 L 188 45.652344 L 188 152 L 126 152 Z M 126 45.652344 " clip-rule="nonzero"/></clipPath><clipPath id="39b867bac5"><path d="M 187 45.652344 L 249 45.652344 L 249 152 L 187 152 Z M 187 45.652344 " clip-rule="nonzero"/></clipPath></defs><path fill="#00c2c4" d="M 269.441406 187.835938 L 187.496094 156.003906 L 187.496094 195.640625 L 298.941406 238.933594 L 269.441406 187.835938 " fill-opacity="1" fill-rule="nonzero"/><path fill="#000000" d="M 105.546875 187.835938 L 76.046875 238.933594 L 187.496094 195.640625 L 187.496094 156.003906 L 105.546875 187.835938 " fill-opacity="1" fill-rule="nonzero"/><g clip-path="url(#4dca2021c8)"><path fill="#000000" d="M 55.285156 274.894531 L 23.988281 329.101562 L 187.496094 265.585938 L 187.496094 223.539062 L 55.285156 274.894531 " fill-opacity="1" fill-rule="nonzero"/></g><g clip-path="url(#1eb98c1c64)"><path fill="#00c2c4" d="M 319.707031 274.894531 L 187.496094 223.539062 L 187.496094 265.585938 L 351.003906 329.101562 L 319.707031 274.894531 " fill-opacity="1" fill-rule="nonzero"/></g><g clip-path="url(#202523b3e5)"><path fill="#000000" d="M 126.3125 151.871094 L 187.496094 128.105469 L 187.496094 45.898438 Z M 126.3125 151.871094 " fill-opacity="1" fill-rule="nonzero"/></g><g clip-path="url(#39b867bac5)"><path fill="#00c2c4" d="M 187.496094 45.898438 L 187.496094 128.105469 L 248.679688 151.871094 Z M 187.496094 45.898438 " fill-opacity="1" fill-rule="nonzero"/></g></svg>