<svg xmlns="http://www.w3.org/2000/svg" xmlns:xlink="http://www.w3.org/1999/xlink" width="500" zoomAndPan="magnify" viewBox="0 0 375 374.999991" height="500" preserveAspectRatio="xMidYMid meet" version="1.0"><defs><g/><clipPath id="dec3f2944a"><path d="M 51.441406 193.878906 L 80.46875 193.878906 L 80.46875 212.582031 L 51.441406 212.582031 Z M 51.441406 193.878906 " clip-rule="nonzero"/></clipPath><clipPath id="3899ab4ce5"><path d="M 80.390625 193.878906 L 109.191406 193.878906 L 109.191406 212.582031 L 80.390625 212.582031 Z M 80.390625 193.878906 " clip-rule="nonzero"/></clipPath><clipPath id="e0603ccb22"><path d="M 69 162.375 L 81 162.375 L 81 182 L 69 182 Z M 69 162.375 " clip-rule="nonzero"/></clipPath><clipPath id="530874f6d7"><path d="M 80 162.375 L 92 162.375 L 92 182 L 80 182 Z M 80 162.375 " clip-rule="nonzero"/></clipPath><clipPath id="cea45700b1"><rect x="0" width="215" y="0" height="60"/></clipPath></defs><path fill="#00c2c4" d="M 94.921875 187.558594 L 80.40625 181.921875 L 80.40625 188.941406 L 100.144531 196.609375 L 94.921875 187.558594 " fill-opacity="1" fill-rule="nonzero"/><path fill="#000000" d="M 65.890625 187.558594 L 60.664062 196.609375 L 80.40625 188.941406 L 80.40625 181.921875 L 65.890625 187.558594 " fill-opacity="1" fill-rule="nonzero"/><g clip-path="url(#dec3f2944a)"><path fill="#000000" d="M 56.988281 202.980469 L 51.441406 212.582031 L 80.40625 201.332031 L 80.40625 193.882812 L 56.988281 202.980469 " fill-opacity="1" fill-rule="nonzero"/></g><g clip-path="url(#3899ab4ce5)"><path fill="#00c2c4" d="M 103.824219 202.980469 L 80.40625 193.882812 L 80.40625 201.332031 L 109.367188 212.582031 L 103.824219 202.980469 " fill-opacity="1" fill-rule="nonzero"/></g><g clip-path="url(#e0603ccb22)"><path fill="#000000" d="M 69.566406 181.1875 L 80.40625 176.980469 L 80.40625 162.417969 Z M 69.566406 181.1875 " fill-opacity="1" fill-rule="nonzero"/></g><g clip-path="url(#530874f6d7)"><path fill="#00c2c4" d="M 80.40625 162.417969 L 80.40625 176.980469 L 91.242188 181.1875 Z M 80.40625 162.417969 " fill-opacity="1" fill-rule="nonzero"/></g><g transform="matrix(1, 0, 0, 1, 116, 157)"><g clip-path="url(#cea45700b1)"><g fill="#000000" fill-opacity="1"><g transform="translate(0.639434, 45.400441)"><g><path d="M 14.71875 -29.484375 L 10.8125 -27.828125 L 10.8125 -2.53125 L 22.078125 -2.53125 L 24.875 -10.125 L 25.75 -10.125 L 25.75 0 L 2.984375 0 L 2.984375 -0.875 L 6.671875 -2.53125 L 6.671875 -27.828125 L 2.984375 -29.484375 L 2.984375 -30.359375 L 14.71875 -30.359375 C 14.6875 -30.359375 14.6875 -30.3125 14.71875 -30.21875 C 14.65625 -29.726562 14.65625 -29.484375 14.71875 -29.484375 Z M 14.71875 -29.484375 "/></g></g></g><g fill="#000000" fill-opacity="1"><g transform="translate(29.563455, 45.400441)"><g><path d="M 18.625 -16.921875 L 20.5625 -20.609375 C 20.5625 -20.609375 20.582031 -20.597656 20.625 -20.578125 C 20.675781 -20.566406 20.726562 -20.5625 20.78125 -20.5625 C 20.84375 -20.5625 20.9375 -20.566406 21.0625 -20.578125 C 21.1875 -20.597656 21.3125 -20.609375 21.4375 -20.609375 C 21.550781 -20.546875 21.609375 -20.546875 21.609375 -20.609375 L 21.609375 -10.71875 L 20.5625 -10.71875 L 18.625 -14.390625 L 10.8125 -14.390625 L 10.8125 -2.53125 L 23.21875 -2.53125 L 25.84375 -8.28125 L 26.671875 -8.28125 L 26.671875 0 L 2.984375 0 L 2.984375 -0.875 L 6.671875 -2.53125 L 6.671875 -27.828125 L 2.984375 -29.484375 L 2.984375 -30.359375 L 25.53125 -30.359375 L 25.53125 -22.53125 L 24.703125 -22.53125 L 22.078125 -27.828125 L 10.8125 -27.828125 L 10.8125 -16.921875 Z M 18.625 -16.921875 "/></g></g></g><g fill="#000000" fill-opacity="1"><g transform="translate(59.407157, 45.400441)"><g><path d="M 3.265625 -14.25 C 3.265625 -17.5625 3.9375 -20.457031 5.28125 -22.9375 C 6.632812 -25.425781 8.53125 -27.359375 10.96875 -28.734375 C 13.40625 -30.117188 16.25 -30.8125 19.5 -30.8125 C 21.707031 -30.8125 23.710938 -30.613281 25.515625 -30.21875 C 27.328125 -29.820312 28.617188 -29.316406 29.390625 -28.703125 L 29.65625 -20.734375 L 28.875 -20.734375 C 28.476562 -21.597656 28.035156 -22.550781 27.546875 -23.59375 C 27.054688 -24.632812 26.597656 -25.582031 26.171875 -26.4375 C 26.046875 -26.75 25.859375 -26.953125 25.609375 -27.046875 C 23.742188 -28.023438 21.707031 -28.515625 19.5 -28.515625 C 17.101562 -28.515625 15.007812 -27.976562 13.21875 -26.90625 C 11.425781 -25.832031 10.03125 -24.335938 9.03125 -22.421875 C 8.039062 -20.503906 7.546875 -18.257812 7.546875 -15.6875 C 7.546875 -13.019531 8.054688 -10.671875 9.078125 -8.640625 C 10.109375 -6.617188 11.539062 -5.046875 13.375 -3.921875 C 15.21875 -2.804688 17.351562 -2.25 19.78125 -2.25 C 21.0625 -2.25 22.238281 -2.328125 23.3125 -2.484375 C 24.382812 -2.640625 25.257812 -2.835938 25.9375 -3.078125 L 25.9375 -10.8125 L 22.03125 -12.46875 L 22.03125 -13.34375 L 33.53125 -13.34375 C 33.5 -13.34375 33.5 -13.296875 33.53125 -13.203125 C 33.46875 -12.710938 33.46875 -12.46875 33.53125 -12.46875 L 30.078125 -10.8125 L 30.125 -3.40625 C 29.144531 -2.269531 27.597656 -1.34375 25.484375 -0.625 C 23.367188 0.09375 21.050781 0.453125 18.53125 0.453125 C 15.5 0.453125 12.832031 -0.15625 10.53125 -1.375 C 8.226562 -2.601562 6.441406 -4.320312 5.171875 -6.53125 C 3.898438 -8.738281 3.265625 -11.3125 3.265625 -14.25 Z M 3.265625 -14.25 "/></g></g></g><g fill="#000000" fill-opacity="1"><g transform="translate(94.952892, 45.400441)"><g><path d="M 18.625 -16.921875 L 20.5625 -20.609375 C 20.5625 -20.609375 20.582031 -20.597656 20.625 -20.578125 C 20.675781 -20.566406 20.726562 -20.5625 20.78125 -20.5625 C 20.84375 -20.5625 20.9375 -20.566406 21.0625 -20.578125 C 21.1875 -20.597656 21.3125 -20.609375 21.4375 -20.609375 C 21.550781 -20.546875 21.609375 -20.546875 21.609375 -20.609375 L 21.609375 -10.71875 L 20.5625 -10.71875 L 18.625 -14.390625 L 10.8125 -14.390625 L 10.8125 -2.53125 L 23.21875 -2.53125 L 25.84375 -8.28125 L 26.671875 -8.28125 L 26.671875 0 L 2.984375 0 L 2.984375 -0.875 L 6.671875 -2.53125 L 6.671875 -27.828125 L 2.984375 -29.484375 L 2.984375 -30.359375 L 25.53125 -30.359375 L 25.53125 -22.53125 L 24.703125 -22.53125 L 22.078125 -27.828125 L 10.8125 -27.828125 L 10.8125 -16.921875 Z M 18.625 -16.921875 "/></g></g></g><g fill="#000000" fill-opacity="1"><g transform="translate(124.796595, 45.400441)"><g><path d="M 14.390625 -0.046875 L 2.890625 -0.046875 L 2.890625 -0.921875 L 6.578125 -2.578125 L 6.578125 -27.875 L 3.125 -29.53125 C 3.0625 -29.53125 3.0625 -29.773438 3.125 -30.265625 C 3.09375 -30.359375 3.09375 -30.40625 3.125 -30.40625 L 9.796875 -30.40625 L 27.359375 -8.421875 L 27.359375 -27.828125 L 22.765625 -29.484375 L 22.765625 -30.359375 L 34.03125 -30.359375 L 34.03125 -29.484375 L 30.578125 -27.828125 L 30.578125 0.1875 L 28.96875 0.1875 L 9.796875 -23.640625 L 9.796875 -2.578125 L 14.390625 -0.921875 Z M 14.390625 -0.046875 "/></g></g></g><g fill="#000000" fill-opacity="1"><g transform="translate(161.813822, 45.400441)"><g><path d="M 3.21875 -30.359375 L 14.71875 -30.359375 L 14.71875 -29.484375 L 11.03125 -27.828125 L 11.03125 -2.53125 L 14.71875 -0.875 L 14.71875 0 L 3.21875 0 L 3.21875 -0.875 L 6.90625 -2.53125 L 6.90625 -27.828125 L 3.21875 -29.484375 Z M 3.21875 -30.359375 "/></g></g></g><g fill="#000000" fill-opacity="1"><g transform="translate(179.747634, 45.400441)"><g><path d="M 16.28125 -12.96875 L 8.328125 -2.484375 L 12.375 -0.828125 L 12.375 0.046875 L 1.75 0.046875 L 1.75 -0.78125 L 4.921875 -2.25 L 14.71875 -15.03125 L 5.15625 -28.046875 L 2.203125 -29.578125 L 2.203125 -30.359375 L 13.796875 -30.359375 L 13.796875 -29.484375 L 10.15625 -27.828125 L 17.515625 -18.03125 L 25.109375 -27.828125 L 21.5625 -29.484375 L 21.5625 -30.359375 L 31.359375 -30.359375 L 31.359375 -29.625 L 28.515625 -28.28125 L 19.078125 -15.953125 L 29.53125 -2.03125 L 32.375 -0.6875 L 32.375 0.046875 L 20.734375 0.046875 L 20.734375 -0.828125 L 23.953125 -2.484375 Z M 16.28125 -12.96875 "/></g></g></g></g></g></svg>