<svg xmlns="http://www.w3.org/2000/svg" xmlns:xlink="http://www.w3.org/1999/xlink" width="500" zoomAndPan="magnify" viewBox="0 0 375 374.999991" height="500" preserveAspectRatio="xMidYMid meet" version="1.0"><defs><clipPath id="e68adef39f"><path d="M 60.273438 215.523438 L 187.765625 215.523438 L 187.765625 297.632812 L 60.273438 297.632812 Z M 60.273438 215.523438 " clip-rule="nonzero"/></clipPath><clipPath id="452580794f"><path d="M 187.433594 215.523438 L 314.523438 215.523438 L 314.523438 297.632812 L 187.433594 297.632812 Z M 187.433594 215.523438 " clip-rule="nonzero"/></clipPath><clipPath id="a0d3349c23"><path d="M 139 77.132812 L 188 77.132812 L 188 160 L 139 160 Z M 139 77.132812 " clip-rule="nonzero"/></clipPath><clipPath id="d462c5838a"><path d="M 187 77.132812 L 236 77.132812 L 236 160 L 187 160 Z M 187 77.132812 " clip-rule="nonzero"/></clipPath></defs><path fill="#00c2c4" d="M 251.257812 187.761719 L 187.496094 162.996094 L 187.496094 193.835938 L 274.210938 227.519531 L 251.257812 187.761719 " fill-opacity="1" fill-rule="nonzero"/><path fill="#000000" d="M 123.734375 187.761719 L 100.78125 227.519531 L 187.496094 193.835938 L 187.496094 162.996094 L 123.734375 187.761719 " fill-opacity="1" fill-rule="nonzero"/><g clip-path="url(#e68adef39f)"><path fill="#000000" d="M 84.625 255.5 L 60.273438 297.679688 L 187.496094 248.257812 L 187.496094 215.539062 L 84.625 255.5 " fill-opacity="1" fill-rule="nonzero"/></g><g clip-path="url(#452580794f)"><path fill="#00c2c4" d="M 290.367188 255.5 L 187.496094 215.539062 L 187.496094 248.257812 L 314.714844 297.679688 L 290.367188 255.5 " fill-opacity="1" fill-rule="nonzero"/></g><g clip-path="url(#a0d3349c23)"><path fill="#000000" d="M 139.890625 159.777344 L 187.496094 141.285156 L 187.496094 77.324219 Z M 139.890625 159.777344 " fill-opacity="1" fill-rule="nonzero"/></g><g clip-path="url(#d462c5838a)"><path fill="#00c2c4" d="M 187.496094 77.324219 L 187.496094 141.285156 L 235.101562 159.777344 Z M 187.496094 77.324219 " fill-opacity="1" fill-rule="nonzero"/></g></svg>