<svg xmlns="http://www.w3.org/2000/svg" xmlns:xlink="http://www.w3.org/1999/xlink" width="400" zoomAndPan="magnify" viewBox="0 0 300 97.5" height="130" preserveAspectRatio="xMidYMid meet" version="1.0"><defs><g/><clipPath id="4fc7b5aca9"><path d="M 0.230469 38.046875 L 30 38.046875 L 30 57.230469 L 0.230469 57.230469 Z M 0.230469 38.046875 " clip-rule="nonzero"/></clipPath><clipPath id="20f394bc8d"><path d="M 29.925781 38.046875 L 59.472656 38.046875 L 59.472656 57.230469 L 29.925781 57.230469 Z M 29.925781 38.046875 " clip-rule="nonzero"/></clipPath><clipPath id="105c60c547"><path d="M 18 5.726562 L 30 5.726562 L 30 26 L 18 26 Z M 18 5.726562 " clip-rule="nonzero"/></clipPath><clipPath id="bb1f5c4aa8"><path d="M 29 5.726562 L 42 5.726562 L 42 26 L 29 26 Z M 29 5.726562 " clip-rule="nonzero"/></clipPath><clipPath id="b69ebdd009"><path d="M 66 0.90625 L 286.742188 0.90625 L 286.742188 61.320312 L 66 61.320312 Z M 66 0.90625 " clip-rule="nonzero"/></clipPath><clipPath id="562d987c4a"><rect x="0" width="221" y="0" height="62"/></clipPath><clipPath id="8c65542331"><rect x="0" width="287" y="0" height="62"/></clipPath></defs><g transform="matrix(1, 0, 0, 1, 7, 17)"><g clip-path="url(#8c65542331)"><path fill="#00c2c4" d="M 44.828125 31.5625 L 29.9375 25.777344 L 29.9375 32.980469 L 50.191406 40.847656 L 44.828125 31.5625 " fill-opacity="1" fill-rule="nonzero"/><path fill="#000000" d="M 15.050781 31.5625 L 9.6875 40.847656 L 29.9375 32.980469 L 29.9375 25.777344 L 15.050781 31.5625 " fill-opacity="1" fill-rule="nonzero"/><g clip-path="url(#4fc7b5aca9)"><path fill="#000000" d="M 5.917969 47.382812 L 0.230469 57.230469 L 29.9375 45.691406 L 29.9375 38.050781 L 5.917969 47.382812 " fill-opacity="1" fill-rule="nonzero"/></g><g clip-path="url(#20f394bc8d)"><path fill="#00c2c4" d="M 53.964844 47.382812 L 29.9375 38.050781 L 29.9375 45.691406 L 59.648438 57.230469 L 53.964844 47.382812 " fill-opacity="1" fill-rule="nonzero"/></g><g clip-path="url(#105c60c547)"><path fill="#000000" d="M 18.824219 25.027344 L 29.9375 20.707031 L 29.9375 5.769531 Z M 18.824219 25.027344 " fill-opacity="1" fill-rule="nonzero"/></g><g clip-path="url(#bb1f5c4aa8)"><path fill="#00c2c4" d="M 29.9375 5.769531 L 29.9375 20.707031 L 41.058594 25.027344 Z M 29.9375 5.769531 " fill-opacity="1" fill-rule="nonzero"/></g><g clip-path="url(#b69ebdd009)"><g transform="matrix(1, 0, 0, 1, 66, 0.000000000000010658)"><g clip-path="url(#562d987c4a)"><g fill="#000000" fill-opacity="1"><g transform="translate(1.109694, 46.786588)"><g><path d="M 15.09375 -30.25 L 11.09375 -28.546875 L 11.09375 -2.59375 L 22.640625 -2.59375 L 25.53125 -10.375 L 26.421875 -10.375 L 26.421875 0 L 3.0625 0 L 3.0625 -0.890625 L 6.84375 -2.59375 L 6.84375 -28.546875 L 3.0625 -30.25 L 3.0625 -31.140625 L 15.09375 -31.140625 C 15.0625 -31.140625 15.0625 -31.09375 15.09375 -31 C 15.03125 -30.5 15.03125 -30.25 15.09375 -30.25 Z M 15.09375 -30.25 "/></g></g></g><g fill="#000000" fill-opacity="1"><g transform="translate(30.78078, 46.786588)"><g><path d="M 19.109375 -17.359375 L 21.09375 -21.140625 C 21.09375 -21.140625 21.113281 -21.128906 21.15625 -21.109375 C 21.207031 -21.097656 21.265625 -21.09375 21.328125 -21.09375 C 21.390625 -21.09375 21.484375 -21.097656 21.609375 -21.109375 C 21.734375 -21.128906 21.859375 -21.140625 21.984375 -21.140625 C 22.109375 -21.078125 22.171875 -21.078125 22.171875 -21.140625 L 22.171875 -11 L 21.09375 -11 L 19.109375 -14.765625 L 11.09375 -14.765625 L 11.09375 -2.59375 L 23.828125 -2.59375 L 26.515625 -8.5 L 27.359375 -8.5 L 27.359375 0 L 3.0625 0 L 3.0625 -0.890625 L 6.84375 -2.59375 L 6.84375 -28.546875 L 3.0625 -30.25 L 3.0625 -31.140625 L 26.1875 -31.140625 L 26.1875 -23.125 L 25.328125 -23.125 L 22.640625 -28.546875 L 11.09375 -28.546875 L 11.09375 -17.359375 Z M 19.109375 -17.359375 "/></g></g></g><g fill="#000000" fill-opacity="1"><g transform="translate(61.395303, 46.786588)"><g><path d="M 3.34375 -14.625 C 3.34375 -18.019531 4.035156 -20.988281 5.421875 -23.53125 C 6.804688 -26.082031 8.75 -28.066406 11.25 -29.484375 C 13.75 -30.898438 16.664062 -31.609375 20 -31.609375 C 22.269531 -31.609375 24.332031 -31.40625 26.1875 -31 C 28.039062 -30.59375 29.359375 -30.070312 30.140625 -29.4375 L 30.4375 -21.28125 L 29.625 -21.28125 C 29.21875 -22.15625 28.757812 -23.128906 28.25 -24.203125 C 27.75 -25.273438 27.28125 -26.25 26.84375 -27.125 C 26.71875 -27.4375 26.53125 -27.640625 26.28125 -27.734375 C 24.363281 -28.742188 22.269531 -29.25 20 -29.25 C 17.550781 -29.25 15.40625 -28.695312 13.5625 -27.59375 C 11.71875 -26.5 10.285156 -24.96875 9.265625 -23 C 8.242188 -21.03125 7.734375 -18.726562 7.734375 -16.09375 C 7.734375 -13.351562 8.257812 -10.941406 9.3125 -8.859375 C 10.375 -6.785156 11.847656 -5.175781 13.734375 -4.03125 C 15.617188 -2.882812 17.800781 -2.3125 20.28125 -2.3125 C 21.601562 -2.3125 22.816406 -2.390625 23.921875 -2.546875 C 25.023438 -2.703125 25.921875 -2.90625 26.609375 -3.15625 L 26.609375 -11.09375 L 22.59375 -12.78125 L 22.59375 -13.6875 L 34.390625 -13.6875 C 34.359375 -13.6875 34.359375 -13.640625 34.390625 -13.546875 C 34.328125 -13.035156 34.328125 -12.78125 34.390625 -12.78125 L 30.859375 -11.09375 L 30.90625 -3.484375 C 29.894531 -2.328125 28.300781 -1.378906 26.125 -0.640625 C 23.957031 0.0976562 21.585938 0.46875 19.015625 0.46875 C 15.898438 0.46875 13.160156 -0.15625 10.796875 -1.40625 C 8.441406 -2.664062 6.609375 -4.425781 5.296875 -6.6875 C 3.992188 -8.957031 3.34375 -11.601562 3.34375 -14.625 Z M 3.34375 -14.625 "/></g></g></g><g fill="#000000" fill-opacity="1"><g transform="translate(97.859134, 46.786588)"><g><path d="M 19.109375 -17.359375 L 21.09375 -21.140625 C 21.09375 -21.140625 21.113281 -21.128906 21.15625 -21.109375 C 21.207031 -21.097656 21.265625 -21.09375 21.328125 -21.09375 C 21.390625 -21.09375 21.484375 -21.097656 21.609375 -21.109375 C 21.734375 -21.128906 21.859375 -21.140625 21.984375 -21.140625 C 22.109375 -21.078125 22.171875 -21.078125 22.171875 -21.140625 L 22.171875 -11 L 21.09375 -11 L 19.109375 -14.765625 L 11.09375 -14.765625 L 11.09375 -2.59375 L 23.828125 -2.59375 L 26.515625 -8.5 L 27.359375 -8.5 L 27.359375 0 L 3.0625 0 L 3.0625 -0.890625 L 6.84375 -2.59375 L 6.84375 -28.546875 L 3.0625 -30.25 L 3.0625 -31.140625 L 26.1875 -31.140625 L 26.1875 -23.125 L 25.328125 -23.125 L 22.640625 -28.546875 L 11.09375 -28.546875 L 11.09375 -17.359375 Z M 19.109375 -17.359375 "/></g></g></g><g fill="#000000" fill-opacity="1"><g transform="translate(128.473657, 46.786588)"><g><path d="M 14.765625 -0.046875 L 2.96875 -0.046875 L 2.96875 -0.9375 L 6.75 -2.640625 L 6.75 -28.59375 L 3.203125 -30.296875 C 3.140625 -30.296875 3.140625 -30.546875 3.203125 -31.046875 C 3.171875 -31.140625 3.171875 -31.1875 3.203125 -31.1875 L 10.046875 -31.1875 L 28.078125 -8.640625 L 28.078125 -28.546875 L 23.359375 -30.25 L 23.359375 -31.140625 L 34.90625 -31.140625 L 34.90625 -30.25 L 31.375 -28.546875 L 31.375 0.1875 L 29.71875 0.1875 L 10.046875 -24.25 L 10.046875 -2.640625 L 14.765625 -0.9375 Z M 14.765625 -0.046875 "/></g></g></g><g fill="#000000" fill-opacity="1"><g transform="translate(166.446987, 46.786588)"><g><path d="M 3.296875 -31.140625 L 15.09375 -31.140625 L 15.09375 -30.25 L 11.328125 -28.546875 L 11.328125 -2.59375 L 15.09375 -0.890625 L 15.09375 0 L 3.296875 0 L 3.296875 -0.890625 L 7.078125 -2.59375 L 7.078125 -28.546875 L 3.296875 -30.25 Z M 3.296875 -31.140625 "/></g></g></g><g fill="#000000" fill-opacity="1"><g transform="translate(184.844004, 46.786588)"><g><path d="M 16.703125 -13.3125 L 8.546875 -2.546875 L 12.6875 -0.84375 L 12.6875 0.046875 L 1.796875 0.046875 L 1.796875 -0.796875 L 5.046875 -2.3125 L 15.09375 -15.421875 L 5.28125 -28.78125 L 2.265625 -30.34375 L 2.265625 -31.140625 L 14.15625 -31.140625 L 14.15625 -30.25 L 10.421875 -28.546875 L 17.96875 -18.5 L 25.765625 -28.546875 L 22.125 -30.25 L 22.125 -31.140625 L 32.171875 -31.140625 L 32.171875 -30.390625 L 29.25 -29.015625 L 19.578125 -16.375 L 30.296875 -2.078125 L 33.21875 -0.703125 L 33.21875 0.046875 L 21.28125 0.046875 L 21.28125 -0.84375 L 24.578125 -2.546875 Z M 16.703125 -13.3125 "/></g></g></g></g></g></g></g></g></svg>