<svg xmlns="http://www.w3.org/2000/svg" xmlns:xlink="http://www.w3.org/1999/xlink" width="400" zoomAndPan="magnify" viewBox="0 0 300 60" height="80" preserveAspectRatio="xMidYMid meet" version="1.0"><defs><g/><clipPath id="6462e696ee"><path d="M 0.933594 36.792969 L 31.835938 36.792969 L 31.835938 56.707031 L 0.933594 56.707031 Z M 0.933594 36.792969 " clip-rule="nonzero"/></clipPath><clipPath id="1261a853b5"><path d="M 31.757812 36.792969 L 62.421875 36.792969 L 62.421875 56.707031 L 31.757812 56.707031 Z M 31.757812 36.792969 " clip-rule="nonzero"/></clipPath><clipPath id="9edf970181"><path d="M 20 3.25 L 32 3.25 L 32 24 L 20 24 Z M 20 3.25 " clip-rule="nonzero"/></clipPath><clipPath id="105a12f17c"><path d="M 31 3.25 L 44 3.25 L 44 24 L 31 24 Z M 31 3.25 " clip-rule="nonzero"/></clipPath><clipPath id="a39d772c26"><rect x="0" width="228" y="0" height="60"/></clipPath><clipPath id="79c11baa61"><rect x="0" width="298" y="0" height="60"/></clipPath></defs><g transform="matrix(1, 0, 0, 1, 2, -0.000000000000001479)"><g clip-path="url(#79c11baa61)"><path fill="#00c2c4" d="M 47.226562 30.0625 L 31.773438 24.058594 L 31.773438 31.535156 L 52.789062 39.699219 L 47.226562 30.0625 " fill-opacity="1" fill-rule="nonzero"/><path fill="#000000" d="M 16.316406 30.0625 L 10.753906 39.699219 L 31.773438 31.535156 L 31.773438 24.058594 L 16.316406 30.0625 " fill-opacity="1" fill-rule="nonzero"/><g clip-path="url(#6462e696ee)"><path fill="#000000" d="M 6.835938 46.480469 L 0.933594 56.707031 L 31.773438 44.726562 L 31.773438 36.796875 L 6.835938 46.480469 " fill-opacity="1" fill-rule="nonzero"/></g><g clip-path="url(#1261a853b5)"><path fill="#00c2c4" d="M 56.707031 46.480469 L 31.773438 36.796875 L 31.773438 44.726562 L 62.609375 56.707031 L 56.707031 46.480469 " fill-opacity="1" fill-rule="nonzero"/></g><g clip-path="url(#9edf970181)"><path fill="#000000" d="M 20.234375 23.28125 L 31.773438 18.796875 L 31.773438 3.292969 Z M 20.234375 23.28125 " fill-opacity="1" fill-rule="nonzero"/></g><g clip-path="url(#105a12f17c)"><path fill="#00c2c4" d="M 31.773438 3.292969 L 31.773438 18.796875 L 43.3125 23.28125 Z M 31.773438 3.292969 " fill-opacity="1" fill-rule="nonzero"/></g><g transform="matrix(1, 0, 0, 1, 70, -0.000000000000001479)"><g clip-path="url(#a39d772c26)"><g fill="#000000" fill-opacity="1"><g transform="translate(0.351169, 45.864835)"><g><path d="M 15.671875 -31.390625 L 11.5 -29.625 L 11.5 -2.6875 L 23.5 -2.6875 L 26.484375 -10.765625 L 27.421875 -10.765625 L 27.421875 0 L 3.1875 0 L 3.1875 -0.9375 L 7.09375 -2.6875 L 7.09375 -29.625 L 3.1875 -31.390625 L 3.1875 -32.3125 L 15.671875 -32.3125 C 15.640625 -32.3125 15.640625 -32.265625 15.671875 -32.171875 C 15.609375 -31.648438 15.609375 -31.390625 15.671875 -31.390625 Z M 15.671875 -31.390625 "/></g></g></g><g fill="#000000" fill-opacity="1"><g transform="translate(31.147202, 45.864835)"><g><path d="M 19.828125 -18.015625 L 21.890625 -21.9375 C 21.890625 -21.9375 21.910156 -21.925781 21.953125 -21.90625 C 22.003906 -21.894531 22.0625 -21.890625 22.125 -21.890625 C 22.195312 -21.890625 22.296875 -21.894531 22.421875 -21.90625 C 22.554688 -21.925781 22.6875 -21.9375 22.8125 -21.9375 C 22.945312 -21.875 23.015625 -21.875 23.015625 -21.9375 L 23.015625 -11.40625 L 21.890625 -11.40625 L 19.828125 -15.328125 L 11.5 -15.328125 L 11.5 -2.6875 L 24.734375 -2.6875 L 27.515625 -8.8125 L 28.40625 -8.8125 L 28.40625 0 L 3.1875 0 L 3.1875 -0.9375 L 7.09375 -2.6875 L 7.09375 -29.625 L 3.1875 -31.390625 L 3.1875 -32.3125 L 27.171875 -32.3125 L 27.171875 -24 L 26.296875 -24 L 23.5 -29.625 L 11.5 -29.625 L 11.5 -18.015625 Z M 19.828125 -18.015625 "/></g></g></g><g fill="#000000" fill-opacity="1"><g transform="translate(62.922441, 45.864835)"><g><path d="M 3.46875 -15.171875 C 3.46875 -18.703125 4.1875 -21.789062 5.625 -24.4375 C 7.0625 -27.082031 9.078125 -29.140625 11.671875 -30.609375 C 14.273438 -32.078125 17.304688 -32.8125 20.765625 -32.8125 C 23.109375 -32.8125 25.242188 -32.597656 27.171875 -32.171875 C 29.097656 -31.742188 30.46875 -31.203125 31.28125 -30.546875 L 31.578125 -22.078125 L 30.75 -22.078125 C 30.320312 -22.992188 29.847656 -24.003906 29.328125 -25.109375 C 28.804688 -26.222656 28.316406 -27.238281 27.859375 -28.15625 C 27.734375 -28.476562 27.539062 -28.691406 27.28125 -28.796875 C 25.28125 -29.835938 23.109375 -30.359375 20.765625 -30.359375 C 18.210938 -30.359375 15.984375 -29.785156 14.078125 -28.640625 C 12.171875 -27.503906 10.6875 -25.914062 9.625 -23.875 C 8.5625 -21.832031 8.03125 -19.441406 8.03125 -16.703125 C 8.03125 -13.859375 8.578125 -11.359375 9.671875 -9.203125 C 10.765625 -7.046875 12.289062 -5.375 14.25 -4.1875 C 16.207031 -3 18.476562 -2.40625 21.0625 -2.40625 C 22.425781 -2.40625 23.679688 -2.484375 24.828125 -2.640625 C 25.972656 -2.804688 26.898438 -3.019531 27.609375 -3.28125 L 27.609375 -11.5 L 23.453125 -13.265625 L 23.453125 -14.203125 L 35.703125 -14.203125 C 35.660156 -14.203125 35.660156 -14.148438 35.703125 -14.046875 C 35.628906 -13.523438 35.628906 -13.265625 35.703125 -13.265625 L 32.015625 -11.5 L 32.078125 -3.625 C 31.023438 -2.414062 29.375 -1.425781 27.125 -0.65625 C 24.875 0.101562 22.410156 0.484375 19.734375 0.484375 C 16.503906 0.484375 13.664062 -0.164062 11.21875 -1.46875 C 8.769531 -2.769531 6.863281 -4.597656 5.5 -6.953125 C 4.144531 -9.304688 3.46875 -12.046875 3.46875 -15.171875 Z M 3.46875 -15.171875 "/></g></g></g><g fill="#000000" fill-opacity="1"><g transform="translate(100.768757, 45.864835)"><g><path d="M 19.828125 -18.015625 L 21.890625 -21.9375 C 21.890625 -21.9375 21.910156 -21.925781 21.953125 -21.90625 C 22.003906 -21.894531 22.0625 -21.890625 22.125 -21.890625 C 22.195312 -21.890625 22.296875 -21.894531 22.421875 -21.90625 C 22.554688 -21.925781 22.6875 -21.9375 22.8125 -21.9375 C 22.945312 -21.875 23.015625 -21.875 23.015625 -21.9375 L 23.015625 -11.40625 L 21.890625 -11.40625 L 19.828125 -15.328125 L 11.5 -15.328125 L 11.5 -2.6875 L 24.734375 -2.6875 L 27.515625 -8.8125 L 28.40625 -8.8125 L 28.40625 0 L 3.1875 0 L 3.1875 -0.9375 L 7.09375 -2.6875 L 7.09375 -29.625 L 3.1875 -31.390625 L 3.1875 -32.3125 L 27.171875 -32.3125 L 27.171875 -24 L 26.296875 -24 L 23.5 -29.625 L 11.5 -29.625 L 11.5 -18.015625 Z M 19.828125 -18.015625 "/></g></g></g><g fill="#000000" fill-opacity="1"><g transform="translate(132.543996, 45.864835)"><g><path d="M 15.328125 -0.046875 L 3.078125 -0.046875 L 3.078125 -0.984375 L 7 -2.734375 L 7 -29.671875 L 3.328125 -31.4375 C 3.265625 -31.4375 3.265625 -31.695312 3.328125 -32.21875 C 3.296875 -32.3125 3.296875 -32.359375 3.328125 -32.359375 L 10.421875 -32.359375 L 29.140625 -8.953125 L 29.140625 -29.625 L 24.234375 -31.390625 L 24.234375 -32.3125 L 36.234375 -32.3125 L 36.234375 -31.390625 L 32.5625 -29.625 L 32.5625 0.203125 L 30.84375 0.203125 L 10.421875 -25.171875 L 10.421875 -2.734375 L 15.328125 -0.984375 Z M 15.328125 -0.046875 "/></g></g></g><g fill="#000000" fill-opacity="1"><g transform="translate(171.957042, 45.864835)"><g><path d="M 3.421875 -32.3125 L 15.671875 -32.3125 L 15.671875 -31.390625 L 11.75 -29.625 L 11.75 -2.6875 L 15.671875 -0.9375 L 15.671875 0 L 3.421875 0 L 3.421875 -0.9375 L 7.34375 -2.6875 L 7.34375 -29.625 L 3.421875 -31.390625 Z M 3.421875 -32.3125 "/></g></g></g><g fill="#000000" fill-opacity="1"><g transform="translate(191.051561, 45.864835)"><g><path d="M 17.328125 -13.8125 L 8.859375 -2.640625 L 13.171875 -0.875 L 13.171875 0.046875 L 1.859375 0.046875 L 1.859375 -0.828125 L 5.234375 -2.40625 L 15.671875 -16.015625 L 5.484375 -29.875 L 2.34375 -31.484375 L 2.34375 -32.3125 L 14.6875 -32.3125 L 14.6875 -31.390625 L 10.828125 -29.625 L 18.65625 -19.1875 L 26.734375 -29.625 L 22.96875 -31.390625 L 22.96875 -32.3125 L 33.390625 -32.3125 L 33.390625 -31.53125 L 30.359375 -30.109375 L 20.328125 -16.984375 L 31.4375 -2.15625 L 34.46875 -0.734375 L 34.46875 0.046875 L 22.078125 0.046875 L 22.078125 -0.875 L 25.515625 -2.640625 Z M 17.328125 -13.8125 "/></g></g></g></g></g></g></g></svg>