<svg xmlns="http://www.w3.org/2000/svg" xmlns:xlink="http://www.w3.org/1999/xlink" width="500" zoomAndPan="magnify" viewBox="0 0 375 374.999991" height="500" preserveAspectRatio="xMidYMid meet" version="1.2"><defs><clipPath id="2082771b61"><path d="M 112.5 123.28125 L 262.5 123.28125 L 262.5 251.53125 L 112.5 251.53125 Z M 112.5 123.28125 "/></clipPath><clipPath id="7d9afa9a0b"><path d="M 368.648438 368.648438 L 374.648438 368.648438 L 374.648438 374.648438 L 368.648438 374.648438 Z M 368.648438 368.648438 "/></clipPath></defs><g id="7deb096808"><g clip-rule="nonzero" clip-path="url(#2082771b61)"><path style=" stroke:none;fill-rule:nonzero;fill:#ffffff;fill-opacity:1;" d="M 144.6875 251.71875 C 143.902344 251.71875 143.109375 251.546875 142.371094 251.1875 C 140.511719 250.296875 139.335938 248.425781 139.335938 246.367188 L 139.335938 230.3125 C 130.082031 230.3125 112.578125 224.71875 112.578125 203.554688 L 112.578125 150.039062 C 112.578125 140.785156 118.171875 123.28125 139.335938 123.28125 L 235.664062 123.28125 C 244.917969 123.28125 262.421875 128.875 262.421875 150.039062 L 262.421875 203.554688 C 262.421875 212.808594 257.949219 230.3125 241.015625 230.3125 L 173.324219 230.3125 L 148.03125 250.546875 C 147.0625 251.324219 145.882812 251.71875 144.6875 251.71875 Z M 144.6875 219.609375 C 147.640625 219.609375 150.039062 222 150.039062 224.960938 L 150.039062 235.230469 L 168.101562 220.78125 C 169.054688 220.019531 170.230469 219.609375 171.445312 219.609375 L 241.015625 219.609375 C 251.5 219.609375 251.714844 204.191406 251.71875 203.539062 L 251.71875 150.039062 C 251.71875 134.929688 238.320312 134.015625 235.632812 133.984375 L 139.335938 133.984375 C 124.226562 133.984375 123.3125 147.378906 123.28125 150.066406 L 123.28125 203.554688 C 123.28125 218.664062 136.675781 219.578125 139.363281 219.609375 Z M 198.203125 176.796875 C 198.203125 170.882812 193.414062 166.09375 187.5 166.09375 C 181.585938 166.09375 176.796875 170.882812 176.796875 176.796875 C 176.796875 182.710938 181.585938 187.5 187.5 187.5 C 193.414062 187.5 198.203125 182.710938 198.203125 176.796875 Z M 166.09375 176.796875 C 166.09375 170.882812 161.304688 166.09375 155.390625 166.09375 C 149.476562 166.09375 144.6875 170.882812 144.6875 176.796875 C 144.6875 182.710938 149.476562 187.5 155.390625 187.5 C 161.304688 187.5 166.09375 182.710938 166.09375 176.796875 Z M 230.3125 176.796875 C 230.3125 170.882812 225.523438 166.09375 219.609375 166.09375 C 213.695312 166.09375 208.90625 170.882812 208.90625 176.796875 C 208.90625 182.710938 213.695312 187.5 219.609375 187.5 C 225.523438 187.5 230.3125 182.710938 230.3125 176.796875 Z M 230.3125 176.796875 "/></g><g clip-rule="nonzero" clip-path="url(#7d9afa9a0b)"><path style=" stroke:none;fill-rule:nonzero;fill:#000000;fill-opacity:1;" d="M 369.074219 374.21875 C 369.105469 374.25 369.140625 374.257812 369.183594 374.25 L 370.316406 373.96875 C 370.503906 374.074219 370.703125 374.160156 370.914062 374.222656 C 371.121094 374.28125 371.335938 374.316406 371.550781 374.328125 C 371.769531 374.335938 371.984375 374.320312 372.199219 374.277344 C 372.410156 374.234375 372.617188 374.167969 372.8125 374.078125 C 373.011719 373.984375 373.195312 373.871094 373.363281 373.734375 C 373.535156 373.597656 373.683594 373.445312 373.816406 373.273438 C 373.949219 373.097656 374.0625 372.914062 374.148438 372.714844 C 374.234375 372.515625 374.296875 372.308594 374.335938 372.09375 C 374.375 371.878906 374.386719 371.664062 374.371094 371.445312 C 374.359375 371.230469 374.316406 371.015625 374.253906 370.808594 C 374.1875 370.601562 374.097656 370.40625 373.984375 370.21875 C 373.871094 370.035156 373.738281 369.863281 373.585938 369.710938 C 373.429688 369.554688 373.261719 369.421875 373.074219 369.308594 C 372.890625 369.195312 372.691406 369.109375 372.484375 369.042969 C 372.277344 368.976562 372.066406 368.9375 371.847656 368.921875 C 371.628906 368.910156 371.414062 368.921875 371.199219 368.957031 C 370.984375 368.996094 370.78125 369.058594 370.582031 369.144531 C 370.382812 369.234375 370.195312 369.34375 370.023438 369.476562 C 369.851562 369.609375 369.695312 369.761719 369.558594 369.929688 C 369.421875 370.101562 369.308594 370.285156 369.21875 370.480469 C 369.125 370.679688 369.058594 370.882812 369.015625 371.097656 C 368.972656 371.308594 368.957031 371.523438 368.964844 371.742188 C 368.976562 371.960938 369.011719 372.171875 369.074219 372.382812 C 369.132812 372.589844 369.21875 372.789062 369.328125 372.976562 L 369.042969 374.105469 C 369.03125 374.148438 369.042969 374.1875 369.074219 374.21875 Z M 369.558594 372.988281 C 369.5625 372.980469 369.5625 372.96875 369.558594 372.960938 C 369.558594 372.9375 369.550781 372.914062 369.539062 372.894531 C 369.433594 372.722656 369.355469 372.539062 369.296875 372.347656 C 369.238281 372.15625 369.203125 371.960938 369.191406 371.761719 C 369.179688 371.5625 369.191406 371.363281 369.230469 371.164062 C 369.265625 370.96875 369.328125 370.777344 369.410156 370.597656 C 369.492188 370.414062 369.597656 370.242188 369.71875 370.085938 C 369.84375 369.929688 369.984375 369.789062 370.144531 369.664062 C 370.300781 369.542969 370.472656 369.441406 370.65625 369.359375 C 370.839844 369.277344 371.03125 369.21875 371.226562 369.183594 C 371.425781 369.144531 371.621094 369.136719 371.824219 369.148438 C 372.023438 369.160156 372.21875 369.195312 372.410156 369.257812 C 372.601562 369.316406 372.78125 369.398438 372.953125 369.5 C 373.125 369.605469 373.28125 369.726562 373.421875 369.871094 C 373.566406 370.011719 373.6875 370.167969 373.792969 370.339844 C 373.894531 370.511719 373.976562 370.695312 374.035156 370.886719 C 374.097656 371.078125 374.132812 371.273438 374.144531 371.472656 C 374.15625 371.671875 374.144531 371.871094 374.109375 372.066406 C 374.074219 372.265625 374.015625 372.457031 373.933594 372.636719 C 373.851562 372.820312 373.746094 372.992188 373.625 373.148438 C 373.5 373.308594 373.359375 373.449219 373.203125 373.574219 C 373.046875 373.695312 372.875 373.800781 372.691406 373.882812 C 372.511719 373.964844 372.320312 374.027344 372.125 374.0625 C 371.925781 374.097656 371.726562 374.113281 371.527344 374.101562 C 371.328125 374.089844 371.132812 374.054688 370.941406 373.996094 C 370.75 373.9375 370.566406 373.855469 370.394531 373.753906 C 370.375 373.738281 370.355469 373.734375 370.332031 373.734375 C 370.320312 373.734375 370.3125 373.734375 370.304688 373.734375 L 369.308594 373.984375 Z M 369.558594 372.988281 "/></g><path style=" stroke:none;fill-rule:nonzero;fill:#000000;fill-opacity:1;" d="M 370.769531 371.625 C 370.769531 371.5 370.722656 371.394531 370.636719 371.304688 C 370.546875 371.21875 370.441406 371.171875 370.316406 371.171875 C 370.191406 371.171875 370.085938 371.21875 369.996094 371.304688 C 369.910156 371.394531 369.867188 371.5 369.867188 371.625 C 369.867188 371.75 369.910156 371.855469 369.996094 371.945312 C 370.085938 372.03125 370.191406 372.074219 370.316406 372.074219 C 370.441406 372.074219 370.546875 372.03125 370.636719 371.945312 C 370.722656 371.855469 370.769531 371.75 370.769531 371.625 Z M 370.089844 371.625 C 370.089844 371.472656 370.167969 371.398438 370.316406 371.398438 C 370.46875 371.398438 370.542969 371.472656 370.542969 371.625 C 370.542969 371.773438 370.46875 371.851562 370.316406 371.851562 C 370.167969 371.851562 370.089844 371.773438 370.089844 371.625 Z M 370.089844 371.625 "/><path style=" stroke:none;fill-rule:nonzero;fill:#000000;fill-opacity:1;" d="M 371.667969 372.074219 C 371.792969 372.074219 371.902344 372.03125 371.988281 371.945312 C 372.078125 371.855469 372.121094 371.75 372.121094 371.625 C 372.121094 371.5 372.078125 371.394531 371.988281 371.304688 C 371.902344 371.21875 371.792969 371.171875 371.667969 371.171875 C 371.546875 371.171875 371.4375 371.21875 371.351562 371.304688 C 371.261719 371.394531 371.21875 371.5 371.21875 371.625 C 371.21875 371.75 371.261719 371.855469 371.351562 371.945312 C 371.4375 372.03125 371.546875 372.074219 371.667969 372.074219 Z M 371.667969 371.398438 C 371.820312 371.398438 371.894531 371.472656 371.894531 371.625 C 371.894531 371.773438 371.820312 371.851562 371.667969 371.851562 C 371.519531 371.851562 371.445312 371.773438 371.445312 371.625 C 371.445312 371.472656 371.519531 371.398438 371.667969 371.398438 Z M 371.667969 371.398438 "/><path style=" stroke:none;fill-rule:nonzero;fill:#000000;fill-opacity:1;" d="M 373.023438 372.074219 C 373.148438 372.074219 373.253906 372.03125 373.34375 371.945312 C 373.429688 371.855469 373.472656 371.75 373.472656 371.625 C 373.472656 371.5 373.429688 371.394531 373.34375 371.304688 C 373.253906 371.21875 373.148438 371.171875 373.023438 371.171875 C 372.898438 371.171875 372.792969 371.21875 372.703125 371.304688 C 372.617188 371.394531 372.570312 371.5 372.570312 371.625 C 372.570312 371.75 372.617188 371.855469 372.703125 371.945312 C 372.792969 372.03125 372.898438 372.074219 373.023438 372.074219 Z M 373.023438 371.398438 C 373.171875 371.398438 373.25 371.472656 373.25 371.625 C 373.25 371.773438 373.171875 371.851562 373.023438 371.851562 C 372.871094 371.851562 372.796875 371.773438 372.796875 371.625 C 372.796875 371.472656 372.871094 371.398438 373.023438 371.398438 Z M 373.023438 371.398438 "/></g></svg>